<svg xmlns="http://www.w3.org/2000/svg" width="30" height="30" viewBox="0 0 512 512"><path d="M482 0H30C13.458 0 0 13.458 0 30v452c0 16.542 13.458 30 30 30h452c16.542 0 30-13.458 30-30V30c0-16.542-13.458-30-30-30zm10 482c0 5.514-4.486 10-10 10H30c-5.514 0-10-4.486-10-10V30c0-5.514 4.486-10 10-10h452c5.514 0 10 4.486 10 10v452z"/><path d="M402.74 251.93a10.071 10.071 0 00-7.07-2.93c-2.64 0-5.21 1.07-7.07 2.93-1.87 1.86-2.93 4.44-2.93 7.07s1.06 5.21 2.93 7.069a10.055 10.055 0 007.07 2.931c2.63 0 5.21-1.07 7.07-2.931 1.86-1.859 2.93-4.439 2.93-7.069s-1.07-5.209-2.93-7.07z"/><path d="M405.667 353.807v-43.474c0-5.522-4.477-10-10-10s-10 4.478-10 10v47.334c0 2.484.925 4.879 2.594 6.719L402.426 380h-86.783l14.897-17.098a10.002 10.002 0 002.46-6.569V182.396c0-.708-.076-1.398-.216-2.064l17.039-43.499h53.202l-14.429 14.429a10.003 10.003 0 00-2.929 7.071V203c0 5.522 4.477 10 10 10s10-4.478 10-10v-40.524l28.571-28.571a10 10 0 00-7.072-17.071H343c-4.21 0-7.805 2.605-9.28 6.288-.01.024-.021.04-.031.065l-60.431 154.278-71.184-153.667A9.998 9.998 0 00193 118H92a10 10 0 00-7.44 16.682l45.94 51.15v139.677l-46.328 58.268A10 10 0 0092 400h99.667a10 10 0 007.662-16.426L150.5 325.361v-98.605l78.785 167.5a10 10 0 009.049 5.744h1.583a10 10 0 009.311-6.353L313 230.84v121.748l-26.873 30.843A10 10 0 00293.666 400H425a9.998 9.998 0 007.406-16.719l-26.739-29.474zM170.227 380h-57.5l27.98-35.192L170.227 380zm68.132-13.441l-88.81-188.814a9.99 9.99 0 00-1.609-2.426L114.423 138h72.188l76.065 164.203c.155.335.326.657.512.966l-24.829 63.39zM319.5 48H238c-5.523 0-10 4.478-10 10s4.477 10 10 10h81.5c5.523 0 10-4.478 10-10s-4.477-10-10-10zM192.618 48h-.118c-5.523 0-10 4.478-10 10s4.477 10 10 10h.118c5.523 0 10-4.478 10-10s-4.477-10-10-10z"/></svg>